# xmcd CD database file
#
# Track frame offsets:
#	150
#	29144
#	48557
#	70046
#	87661
#	115719
#	151601
#	168871
#	196057
#	204082
#	226540
#	255699
#
# Disc length: 3777 seconds
#
# Revision: 0
# Processed by: cddbd v1.5.1PL0 Copyright (c) Steve Scherf et al.
# Submitted via: CDex 1.51
#
DISCID=8e0ebf0c
DTITLE=Catali Antonini - Château de Sable
DYEAR=2001
DGENRE=Jazz
TTITLE0=Bartok's last dance
TTITLE1=Something fast in our sky
TTITLE2=Château de sable
TTITLE3=Samarkand
TTITLE4=Voce muntagnole
TTITLE5=Signadori e mazzeri
TTITLE6=Un peu plus tard...
TTITLE7=Amphibian
TTITLE8=Yasmina valse
TTITLE9=Sea horses
TTITLE10=Samba Teresa
TTITLE11=Canastel
EXTD=YEAR: 2001
EXTT0=
EXTT1=
EXTT2=
EXTT3=
EXTT4=
EXTT5=
EXTT6=
EXTT7=
EXTT8=
EXTT9=
EXTT10=
EXTT11=
PLAYORDER=
